<svg width="268" height="150" viewBox="0 0 50 25" fill="none" xmlns="http://www.w3.org/2000/svg">
<path d="M53.5698 22.6703H39.3031L41.7429 20.5034L42.9828 17.4057L42.905 2.16391C42.8917 1.32811 43.1136 1.05017 43.7637 1.04483H52.0954C52.0954 1.04483 52.6787 1.04484 52.6739 1.61737C52.6691 2.1899 52.0954 2.16391 52.0954 2.16391H43.8879V6.92377H52.9242C52.9242 6.92377 53.4957 6.93893 53.4957 7.49411C53.4957 8.0493 52.9242 8.06446 52.9242 8.06446H43.8879V21.5631H53.5698C53.5698 21.5631 54.0606 21.5974 54.0684 22.1167C54.0761 22.636 53.5698 22.6703 53.5698 22.6703Z" fill="#B95A3F"/>
<path d="M32.5799 1.30864H23.1392V17.1861C23.2433 21.2155 24.585 23.3121 32.5799 23.5187C38.9107 23.6823 41.9714 22.7384 43.3991 17.9168C43.933 16.114 43.987 14.2095 43.987 12.3294V1.47524H42.905V15.2191C42.0209 21.6326 39.2707 22.6587 32.5799 22.4523V1.30864Z" fill="#401D24"/>
<path d="M17.0563 1.8623H5.93155L19.5046 25.0448L22.8935 18.6531V12.326L17.0563 1.8623Z" fill="#31357F"/>
</svg>
